<?xml version="1.0" encoding="utf-8"?>
<svg viewBox="33 7 133.969 185.911" width="133.969" height="185.911" xmlns="http://www.w3.org/2000/svg">
  <g transform="matrix(0.1, 0, 0, -0.1, 0, 200)" fill="#000000" stroke="none">
    <path d="M330 1916 c0 -8 19 -18 45 -25 28 -7 49 -20 57 -34 19 -32 19 -962 0 -995 -8 -14 -30 -27 -57 -34 -25 -7 -45 -18 -45 -25 0 -10 56 -13 270 -13 232 0 270 2 270 15 0 15 -13 19 -84 29 -76 10 -81 22 -84 231 l-4 185 79 0 c301 2 486 136 487 355 1 94 -22 151 -85 210 -104 97 -188 114 -571 115 -230 0 -278 -2 -278 -14z m560 -38 c24 -13 52 -34 62 -48 45 -64 63 -267 34 -379 -31 -116 -88 -161 -213 -169 l-73 -5 0 270 c0 285 6 328 44 343 39 16 101 11 146 -12z" style="fill: rgb(71, 16, 148);"/>
    <path d="M1133 1235 c-77 -21 -125 -48 -165 -93 -53 -58 -72 -117 -66 -204 9 -130 57 -195 239 -318 234 -159 282 -215 282 -329 0 -106 -63 -171 -174 -179 -178 -13 -276 98 -314 355 -4 27 -12 43 -21 43 -11 0 -14 -18 -14 -78 0 -44 -3 -140 -7 -215 -6 -136 -6 -137 15 -137 16 0 22 6 22 24 0 47 24 52 98 18 94 -44 159 -55 276 -50 161 8 268 61 330 161 25 41 30 61 34 133 4 79 3 88 -27 149 -39 80 -86 122 -281 256 -84 57 -167 121 -186 142 -84 99 -59 245 49 286 43 17 127 13 172 -8 84 -38 158 -157 172 -273 5 -38 10 -48 24 -48 18 0 19 10 19 143 0 78 3 159 6 180 6 33 4 37 -15 37 -14 0 -21 -6 -21 -19 0 -11 -7 -26 -15 -35 -14 -13 -24 -11 -101 26 -79 38 -93 41 -182 45 -65 2 -114 -2 -149 -12z" style="fill: rgb(71, 16, 148);"/>
  </g>
</svg>